<mxfile host="app.diagrams.net" modified="2020-08-27T15:50:08.343Z" agent="5.0 (Windows NT 10.0; Win64; x64) AppleWebKit/537.36 (KHTML, like Gecko) Chrome/84.0.4147.135 Safari/537.36" etag="FNCqGYX73dyoPhXu9tjG" version="13.6.5" type="github">
  <diagram id="6a731a19-8d31-9384-78a2-239565b7b9f0" name="Page-1">
    <mxGraphModel dx="1673" dy="896" grid="1" gridSize="10" guides="1" tooltips="1" connect="1" arrows="1" fold="1" page="1" pageScale="1" pageWidth="1169" pageHeight="827" background="#ffffff" math="0" shadow="0">
      <root>
        <mxCell id="0" />
        <mxCell id="1" parent="0" />
        <mxCell id="56" value="TriplePro Migration API" style="strokeColor=#BAC8D3;fillColor=#23445D;fontSize=24;strokeWidth=2;fontFamily=Helvetica;html=1;fontColor=#FFFFFF;fontStyle=0;spacingBottom=8;spacingRight=0;spacingLeft=83;" parent="1" vertex="1">
          <mxGeometry x="154" y="827" width="1016" height="80" as="geometry" />
        </mxCell>
        <mxCell id="59" value="v 1.0" style="strokeColor=#BAC8D3;fillColor=#5d7f99;fontSize=19;strokeWidth=2;fontFamily=Helvetica;html=1;labelBackgroundColor=none;fontColor=#FFFFFF;" parent="1" vertex="1">
          <mxGeometry x="154" y="850.5" width="90" height="80" as="geometry" />
        </mxCell>
        <mxCell id="68" value="" style="strokeColor=#FFFFFF;fillColor=#BAC8D3;fontSize=18;strokeWidth=2;fontFamily=Helvetica;html=1;opacity=60;" parent="1" vertex="1">
          <mxGeometry x="154" y="930.5" width="1016" height="629.5" as="geometry" />
        </mxCell>
        <mxCell id="140" value="" style="group" parent="1" vertex="1" connectable="0">
          <mxGeometry x="244" y="890.5" width="926" height="40" as="geometry" />
        </mxCell>
        <mxCell id="141" value="Milestone 1" style="strokeColor=#BAC8D3;fillColor=#5d7f99;fontSize=19;strokeWidth=2;fontFamily=Helvetica;html=1;labelBackgroundColor=none;fontColor=#FFFFFF;" parent="140" vertex="1">
          <mxGeometry width="925.9985245144127" height="40" as="geometry" />
        </mxCell>
        <mxCell id="Vo78NG-b2OAH4mDvwk-F-173" style="edgeStyle=orthogonalEdgeStyle;rounded=0;orthogonalLoop=1;jettySize=auto;html=1;exitX=0;exitY=0.5;exitDx=0;exitDy=0;entryX=0.5;entryY=0;entryDx=0;entryDy=0;" edge="1" parent="1" source="Vo78NG-b2OAH4mDvwk-F-164" target="Vo78NG-b2OAH4mDvwk-F-176">
          <mxGeometry relative="1" as="geometry">
            <mxPoint x="242.5" y="1050" as="targetPoint" />
          </mxGeometry>
        </mxCell>
        <mxCell id="Vo78NG-b2OAH4mDvwk-F-164" value="Triple Pro Migration API" style="rounded=1;whiteSpace=wrap;html=1;" vertex="1" parent="1">
          <mxGeometry x="490" y="940" width="120" height="60" as="geometry" />
        </mxCell>
        <mxCell id="Vo78NG-b2OAH4mDvwk-F-167" style="edgeStyle=orthogonalEdgeStyle;rounded=0;orthogonalLoop=1;jettySize=auto;html=1;exitX=0.75;exitY=0;exitDx=0;exitDy=0;entryX=0.5;entryY=1;entryDx=0;entryDy=0;" edge="1" parent="1" source="Vo78NG-b2OAH4mDvwk-F-165" target="Vo78NG-b2OAH4mDvwk-F-180">
          <mxGeometry relative="1" as="geometry" />
        </mxCell>
        <mxCell id="Vo78NG-b2OAH4mDvwk-F-165" value="WooCommerce Rest API" style="whiteSpace=wrap;html=1;rounded=1;" vertex="1" parent="1">
          <mxGeometry x="490" y="1340" width="120" height="60" as="geometry" />
        </mxCell>
        <mxCell id="Vo78NG-b2OAH4mDvwk-F-171" style="edgeStyle=orthogonalEdgeStyle;rounded=0;orthogonalLoop=1;jettySize=auto;html=1;exitX=0.5;exitY=1;exitDx=0;exitDy=0;entryX=0.5;entryY=0;entryDx=0;entryDy=0;" edge="1" parent="1" source="Vo78NG-b2OAH4mDvwk-F-168" target="Vo78NG-b2OAH4mDvwk-F-165">
          <mxGeometry relative="1" as="geometry" />
        </mxCell>
        <mxCell id="Vo78NG-b2OAH4mDvwk-F-168" value="OAuth (1 or 2?)&lt;br&gt;Authentication" style="rounded=0;whiteSpace=wrap;html=1;" vertex="1" parent="1">
          <mxGeometry x="450" y="1180" width="120" height="50" as="geometry" />
        </mxCell>
        <mxCell id="Vo78NG-b2OAH4mDvwk-F-169" value="" style="edgeStyle=orthogonalEdgeStyle;rounded=0;orthogonalLoop=1;jettySize=auto;html=1;exitX=0.5;exitY=1;exitDx=0;exitDy=0;" edge="1" parent="1" source="Vo78NG-b2OAH4mDvwk-F-164" target="Vo78NG-b2OAH4mDvwk-F-168">
          <mxGeometry relative="1" as="geometry">
            <mxPoint x="265" y="1070" as="sourcePoint" />
            <mxPoint x="270.0588235294117" y="1140" as="targetPoint" />
            <Array as="points">
              <mxPoint x="550" y="1140" />
              <mxPoint x="510" y="1140" />
            </Array>
          </mxGeometry>
        </mxCell>
        <mxCell id="Vo78NG-b2OAH4mDvwk-F-178" style="edgeStyle=orthogonalEdgeStyle;rounded=0;orthogonalLoop=1;jettySize=auto;html=1;exitX=0.5;exitY=1;exitDx=0;exitDy=0;entryX=0.25;entryY=1;entryDx=0;entryDy=0;" edge="1" parent="1" source="Vo78NG-b2OAH4mDvwk-F-176" target="Vo78NG-b2OAH4mDvwk-F-164">
          <mxGeometry relative="1" as="geometry" />
        </mxCell>
        <mxCell id="Vo78NG-b2OAH4mDvwk-F-176" value="Authorization&lt;br&gt;" style="rhombus;whiteSpace=wrap;html=1;" vertex="1" parent="1">
          <mxGeometry x="360" y="990" width="100" height="80" as="geometry" />
        </mxCell>
        <mxCell id="Vo78NG-b2OAH4mDvwk-F-181" style="edgeStyle=orthogonalEdgeStyle;rounded=0;orthogonalLoop=1;jettySize=auto;html=1;exitX=0.5;exitY=0;exitDx=0;exitDy=0;entryX=0.75;entryY=1;entryDx=0;entryDy=0;" edge="1" parent="1" source="Vo78NG-b2OAH4mDvwk-F-180" target="Vo78NG-b2OAH4mDvwk-F-164">
          <mxGeometry relative="1" as="geometry" />
        </mxCell>
        <mxCell id="Vo78NG-b2OAH4mDvwk-F-180" value="Authentication&amp;nbsp;&lt;br&gt;Data&lt;br&gt;" style="shape=dataStorage;whiteSpace=wrap;html=1;fixedSize=1;" vertex="1" parent="1">
          <mxGeometry x="585" y="1090" width="138" height="50" as="geometry" />
        </mxCell>
      </root>
    </mxGraphModel>
  </diagram>
</mxfile>
